<svg xmlns="http://www.w3.org/2000/svg" xmlns:xlink="http://www.w3.org/1999/xlink" width="150" zoomAndPan="magnify" viewBox="0 0 112.5 37.5" height="50" preserveAspectRatio="xMidYMid meet" version="1.0"><defs><g/><clipPath id="1672f97cba"><path d="M 0.492188 0 L 111.511719 0 L 111.511719 37.007812 L 0.492188 37.007812 Z M 0.492188 0 " clip-rule="nonzero"/></clipPath><clipPath id="82cb8e40cf"><path d="M 3.632812 5.746094 L 58.679688 5.746094 L 58.679688 31.738281 L 3.632812 31.738281 Z M 3.632812 5.746094 " clip-rule="nonzero"/></clipPath></defs><g clip-path="url(#1672f97cba)"><path fill="#ffffff" d="M 0.492188 0 L 112.007812 0 L 112.007812 81.03125 L 0.492188 81.03125 Z M 0.492188 0 " fill-opacity="1" fill-rule="nonzero"/><path fill="#ffffff" d="M 0.492188 0 L 112.007812 0 L 112.007812 37.171875 L 0.492188 37.171875 Z M 0.492188 0 " fill-opacity="1" fill-rule="nonzero"/><path fill="#ffffff" d="M 0.492188 0 L 112.007812 0 L 112.007812 37.171875 L 0.492188 37.171875 Z M 0.492188 0 " fill-opacity="1" fill-rule="nonzero"/><rect x="-11.25" width="135" fill="#232325" y="-3.75" height="45" fill-opacity="1"/><path stroke-linecap="butt" transform="matrix(0.74254, 0, 0, 0.743421, -2.182894, -3.715401)" fill="none" stroke-linejoin="miter" d="M -0.000941787 0.00074942 L 158.187121 0.00074942 L 158.187121 57.993834 L -0.000941787 57.993834 L -0.000941787 0.00074942 " stroke="#ffd600" stroke-width="26" stroke-opacity="1" stroke-miterlimit="4"/></g><g clip-path="url(#82cb8e40cf)"><path fill="#ffd600" d="M 3.632812 5.746094 L 58.917969 5.746094 L 58.917969 32.003906 L 3.632812 32.003906 Z M 3.632812 5.746094 " fill-opacity="1" fill-rule="nonzero"/></g><g fill="#000000" fill-opacity="1"><g transform="translate(6.547422, 20.739959)"><g><path d="M 2.542969 1.539062 L 5.300781 1.539062 L 5.300781 -5.144531 L 7.566406 -5.144531 L 7.566406 -7.6875 L 0.308594 -7.6875 L 0.308594 -5.144531 L 2.542969 -5.144531 Z M -0.308594 -8.507812 L 8.179688 -8.507812 L 8.179688 2.359375 L -0.308594 2.359375 Z M -0.308594 -8.507812 "/></g></g></g><g fill="#000000" fill-opacity="1"><g transform="translate(15.191573, 20.739959)"><g><path d="M 0.511719 -7.6875 L 0.511719 1.539062 L 3.269531 1.539062 L 3.269531 -0.984375 L 3.773438 -0.984375 L 5.011719 1.539062 L 8.273438 1.539062 L 6.613281 -1.539062 C 7.042969 -1.792969 7.359375 -2.152344 7.566406 -2.625 C 7.761719 -3.074219 7.863281 -3.648438 7.863281 -4.324219 C 7.863281 -4.980469 7.761719 -5.535156 7.566406 -5.976562 C 7.359375 -6.40625 7.09375 -6.746094 6.753906 -7 C 6.40625 -7.246094 5.996094 -7.433594 5.527344 -7.535156 C 5.054688 -7.636719 4.542969 -7.6875 4.007812 -7.6875 Z M 3.761719 -5.1875 C 3.96875 -5.1875 4.152344 -5.175781 4.324219 -5.167969 C 4.488281 -5.144531 4.632812 -5.117188 4.757812 -5.0625 C 4.871094 -5.003906 4.960938 -4.910156 5.035156 -4.808594 C 5.09375 -4.683594 5.125 -4.53125 5.125 -4.335938 C 5.125 -4 5.011719 -3.773438 4.808594 -3.671875 C 4.59375 -3.558594 4.242188 -3.507812 3.761719 -3.507812 L 3.269531 -3.507812 L 3.269531 -5.1875 Z M -0.308594 -8.507812 L 8.714844 -8.507812 L 8.714844 2.359375 L -0.308594 2.359375 Z M -0.308594 -8.507812 "/></g></g></g><g fill="#000000" fill-opacity="1"><g transform="translate(24.368229, 20.739959)"><g><path d="M 3.023438 -7.6875 L 0.203125 1.539062 L 3.085938 1.539062 L 3.382812 0.347656 L 5.628906 0.347656 L 5.9375 1.539062 L 8.816406 1.539062 L 5.996094 -7.6875 Z M 4.511719 -4.019531 L 5.023438 -2.03125 L 4 -2.03125 Z M -0.308594 -8.507812 L 9.328125 -8.507812 L 9.328125 2.359375 L -0.308594 2.359375 Z M -0.308594 -8.507812 "/></g></g></g><g fill="#000000" fill-opacity="1"><g transform="translate(34.159327, 20.739959)"><g><path d="M 0.511719 -7.6875 L 0.511719 1.539062 L 3.496094 1.539062 C 5.035156 1.539062 6.179688 1.160156 6.949219 0.421875 C 7.710938 -0.328125 8.097656 -1.488281 8.097656 -3.066406 C 8.097656 -3.96875 7.976562 -4.726562 7.738281 -5.332031 C 7.492188 -5.925781 7.15625 -6.398438 6.734375 -6.746094 C 6.304688 -7.09375 5.8125 -7.339844 5.25 -7.484375 C 4.675781 -7.617188 4.070312 -7.6875 3.425781 -7.6875 Z M 3.351562 -5.175781 C 3.640625 -5.175781 3.90625 -5.144531 4.160156 -5.105469 C 4.40625 -5.042969 4.632812 -4.941406 4.828125 -4.796875 C 5.011719 -4.644531 5.15625 -4.429688 5.269531 -4.160156 C 5.371094 -3.875 5.421875 -3.515625 5.421875 -3.066406 C 5.421875 -2.65625 5.371094 -2.316406 5.289062 -2.050781 C 5.1875 -1.785156 5.054688 -1.570312 4.878906 -1.414062 C 4.695312 -1.25 4.46875 -1.148438 4.214844 -1.085938 C 3.945312 -1.023438 3.640625 -0.996094 3.3125 -0.996094 L 3.207031 -0.996094 L 3.207031 -5.175781 Z M -0.308594 -8.507812 L 8.816406 -8.507812 L 8.816406 2.359375 L -0.308594 2.359375 Z M -0.308594 -8.507812 "/></g></g></g><g fill="#000000" fill-opacity="1"><g transform="translate(43.438391, 20.739959)"><g><path d="M 0.613281 -7.6875 L 0.613281 1.539062 L 3.363281 1.539062 L 3.363281 -7.6875 Z M -0.308594 -8.507812 L 4.285156 -8.507812 L 4.285156 2.359375 L -0.308594 2.359375 Z M -0.308594 -8.507812 "/></g></g></g><g fill="#000000" fill-opacity="1"><g transform="translate(48.191129, 20.739959)"><g><path d="M 6.878906 -4.335938 L 3.269531 -4.335938 L 3.269531 -5.175781 L 7.011719 -5.175781 L 7.011719 -7.6875 L 0.511719 -7.6875 L 0.511719 1.539062 L 7.1875 1.539062 L 7.1875 -0.972656 L 3.269531 -0.972656 L 3.269531 -1.835938 L 6.878906 -1.835938 Z M -0.308594 -8.507812 L 7.894531 -8.507812 L 7.894531 2.359375 L -0.308594 2.359375 Z M -0.308594 -8.507812 "/></g></g></g><g fill="#ffffff" fill-opacity="1"><g transform="translate(64.19481, 22.858326)"><g><path d="M 0.921875 0 L 3.417969 0 L 3.417969 -4.429688 L 5.101562 -2.070312 L 6.734375 -2.070312 L 8.40625 -4.414062 L 8.40625 0 L 10.902344 0 L 10.902344 -8.730469 L 8.855469 -8.730469 L 5.914062 -4.578125 L 2.980469 -8.730469 L 0.921875 -8.730469 Z M 0.921875 0 "/></g></g></g><g fill="#ffffff" fill-opacity="1"><g transform="translate(76.02005, 22.858326)"><g><path d="M 0.0625 0 L 2.730469 0 L 3.207031 -1.234375 L 6.1875 -1.234375 L 6.660156 0 L 9.34375 0 L 5.949219 -8.730469 L 3.457031 -8.730469 Z M 3.730469 -3.082031 L 4.703125 -5.789062 L 5.675781 -3.082031 Z M 3.730469 -3.082031 "/></g></g></g><g fill="#ffffff" fill-opacity="1"><g transform="translate(85.425354, 22.858326)"><g><path d="M 3.007812 0 L 5.515625 0 L 5.515625 -6.398438 L 8.171875 -6.398438 L 8.171875 -8.730469 L 0.347656 -8.730469 L 0.347656 -6.398438 L 3.007812 -6.398438 Z M 3.007812 0 "/></g></g></g><g fill="#ffffff" fill-opacity="1"><g transform="translate(93.945014, 22.858326)"><g><path d="M 0.921875 0 L 7.046875 0 L 7.046875 -2.058594 L 3.417969 -2.058594 L 3.417969 -3.40625 L 6.574219 -3.40625 L 6.574219 -5.425781 L 3.417969 -5.425781 L 3.417969 -6.699219 L 6.910156 -6.699219 L 6.910156 -8.730469 L 0.921875 -8.730469 Z M 0.921875 0 "/></g></g></g></svg>